<?xml version="1.0" encoding="utf-8" standalone="no"?>
<!DOCTYPE svg PUBLIC "-//W3C//DTD SVG 1.1//EN"
  "http://www.w3.org/Graphics/SVG/1.1/DTD/svg11.dtd">
<!-- Created with matplotlib (http://matplotlib.org/) -->
<svg height="691pt" version="1.1" viewBox="0 0 1555 691" width="1555pt" xmlns="http://www.w3.org/2000/svg" xmlns:xlink="http://www.w3.org/1999/xlink">
 <defs>
  <style type="text/css">
*{stroke-linecap:butt;stroke-linejoin:round;}
  </style>
 </defs>
 <g id="figure_1">
  <g id="patch_1">
   <path d="
M0 691.2
L1555.2 691.2
L1555.2 0
L0 0
z
" style="fill:#ffffff;"/>
  </g>
  <g id="axes_1">
   <g id="patch_2">
    <path d="
M-64.8 756
L1620 756
L1620 -64.8
L-64.8 -64.8
z
" style="fill:#ffffff;"/>
   </g>
   <g id="patch_3">
    <path clip-path="url(#p0570a6eff0)" d="
M417.971 222.903
L439.126 222.903
C454.992 222.903 465.569 231.365 481.435 231.365
L502.59 231.365
L527.975 231.365
C532.462 231.365 536.77 229.581 539.942 226.408
C543.115 223.236 544.899 218.928 544.899 214.441
L544.899 214.441
L527.975 214.441
L553.361 189.056
L578.746 214.441
L561.823 214.441
L561.823 214.441
C561.823 223.415 558.254 232.03 551.909 238.375
C545.564 244.72 536.949 248.289 527.975 248.289
L561.823 248.289
L587.208 248.289
C591.695 248.289 596.003 246.504 599.175 243.332
C602.348 240.159 604.132 235.852 604.132 231.365
L604.132 146.746
L587.208 146.746
L612.594 121.361
L637.979 146.746
L621.056 146.746
L621.056 231.365
C621.056 240.338 617.487 248.954 611.142 255.299
C604.797 261.644 596.182 265.212 587.208 265.212
L621.056 265.212
L654.903 265.212
L705.674 265.212
L705.674 248.289
L756.445 299.06
L705.674 349.831
L705.674 332.907
L663.365 332.907
L654.903 332.907
L621.056 332.907
C630.029 332.907 638.644 336.476 644.989 342.821
C651.335 349.166 654.903 357.781 654.903 366.755
L654.903 434.449
L671.827 434.449
L646.441 459.835
L621.056 434.449
L637.979 434.449
L637.979 366.755
C637.979 362.268 636.195 357.96 633.023 354.788
C629.85 351.615 625.542 349.831 621.056 349.831
L595.67 349.831
L527.975 349.831
C545.922 349.831 563.152 356.968 575.843 369.658
C588.533 382.349 595.67 399.579 595.67 417.526
L595.67 485.221
L612.594 485.221
L570.285 527.53
L527.975 485.221
L544.899 485.221
L544.899 417.526
C544.899 413.039 543.115 408.731 539.942 405.559
C536.77 402.386 532.462 400.602 527.975 400.602
L502.59 400.602
L502.59 400.602
L481.435 400.602
C465.569 400.602 454.992 409.064 439.126 409.064
L417.971 409.064
L358.738 409.064
L274.12 409.064
L291.043 392.14
L274.12 375.216
L316.429 375.216
L231.81 375.216
L299.505 307.522
L231.81 239.827
L274.12 239.827
L358.738 239.827
L392.586 239.827
C383.612 239.827 374.997 236.258 368.652 229.913
C362.307 223.568 358.738 214.953 358.738 205.979
L358.738 138.285
L367.2 146.746
L375.662 138.285
L375.662 205.979
C375.662 210.466 377.446 214.774 380.619 217.946
C383.791 221.119 388.099 222.903 392.586 222.903
L417.971 222.903
z
" style="fill:#ffa500;stroke:#000000;stroke-linejoin:miter;stroke-width:0.5;"/>
   </g>
   <g id="patch_4">
    <path clip-path="url(#p0570a6eff0)" d="
M1078 163.67
L1099.15 163.67
C1115.02 163.67 1125.59 172.132 1141.46 172.132
L1162.61 172.132
L1188 172.132
C1192.49 172.132 1196.79 170.348 1199.97 167.175
C1203.14 164.003 1204.92 159.695 1204.92 155.208
L1204.92 87.5134
L1188 87.5134
L1213.39 62.1278
L1238.77 87.5134
L1221.85 87.5134
L1221.85 155.208
C1221.85 164.182 1218.28 172.797 1211.93 179.142
C1205.59 185.487 1196.97 189.056 1188 189.056
L1221.85 189.056
L1255.69 189.056
L1255.69 172.132
L1340.31 256.751
L1255.69 341.369
L1255.69 324.445
L1213.39 324.445
L1221.85 324.445
L1188 324.445
C1196.97 324.445 1205.59 328.014 1211.93 334.359
C1218.28 340.704 1221.85 349.319 1221.85 358.293
L1221.85 425.988
L1238.77 425.988
L1213.39 451.373
L1188 425.988
L1204.92 425.988
L1204.92 358.293
C1204.92 353.806 1203.14 349.499 1199.97 346.326
C1196.79 343.153 1192.49 341.369 1188 341.369
L1162.61 341.369
L1162.61 341.369
L1141.46 341.369
C1125.59 341.369 1115.02 349.831 1099.15 349.831
L1078 349.831
L1052.61 349.831
C1048.12 349.831 1043.82 351.615 1040.64 354.788
C1037.47 357.96 1035.69 362.268 1035.69 366.755
L1035.69 434.449
L1027.22 425.988
L1018.76 434.449
L1018.76 366.755
C1018.76 357.781 1022.33 349.166 1028.68 342.821
C1035.02 336.476 1043.64 332.907 1052.61 332.907
L1018.76 332.907
L807.216 332.907
L722.598 332.907
L756.445 299.06
L722.598 265.212
L764.907 265.212
L807.216 265.212
L841.064 265.212
C832.09 265.212 823.475 261.644 817.13 255.299
C810.785 248.954 807.216 240.338 807.216 231.365
L807.216 163.67
L815.678 172.132
L824.14 163.67
L824.14 231.365
C824.14 235.852 825.924 240.159 829.097 243.332
C832.27 246.504 836.577 248.289 841.064 248.289
L866.449 248.289
L900.297 248.289
C891.323 248.289 882.708 244.72 876.363 238.375
C870.018 232.03 866.449 223.415 866.449 214.441
L866.449 146.746
L874.911 155.208
L883.373 146.746
L883.373 214.441
C883.373 218.928 885.157 223.236 888.33 226.408
C891.503 229.581 895.81 231.365 900.297 231.365
L925.682 231.365
L959.53 231.365
C950.556 231.365 941.941 227.796 935.596 221.451
C929.251 215.106 925.682 206.491 925.682 197.518
L925.682 129.823
L934.144 138.285
L942.606 129.823
L942.606 197.518
C942.606 202.004 944.39 206.312 947.563 209.484
C950.736 212.657 955.043 214.441 959.53 214.441
L984.915 214.441
L1052.61 214.441
C1034.66 214.441 1017.43 207.304 1004.74 194.614
C992.052 181.923 984.915 164.693 984.915 146.746
L984.915 79.0515
L1010.3 104.437
L1035.69 79.0515
L1035.69 146.746
C1035.69 151.233 1037.47 155.541 1040.64 158.713
C1043.82 161.886 1048.12 163.67 1052.61 163.67
L1078 163.67
z
" style="fill:#fdf6e3;stroke:#000000;stroke-linejoin:miter;stroke-width:0.5;"/>
   </g>
   <g id="patch_5">
    <path clip-path="url(#p0570a6eff0)" d="
M697.212 535.992
L767.023 535.992
C819.38 535.992 854.286 535.992 906.643 535.992
L976.454 535.992
L1001.84 535.992
C1006.33 535.992 1010.63 534.208 1013.81 531.035
C1016.98 527.862 1018.76 523.555 1018.76 519.068
L1018.76 451.373
L1001.84 451.373
L1027.22 425.988
L1052.61 451.373
L1035.69 451.373
L1035.69 519.068
C1035.69 528.041 1032.12 536.657 1025.77 543.002
C1019.43 549.347 1010.81 552.915 1001.84 552.915
L976.454 552.915
L906.643 552.915
C854.286 552.915 819.38 552.915 767.023 552.915
L671.827 552.915
C662.853 552.915 654.238 549.347 647.893 543.002
C641.548 536.657 637.979 528.041 637.979 519.068
L637.979 451.373
L646.441 459.835
L654.903 451.373
L654.903 519.068
C654.903 523.555 656.687 527.862 659.86 531.035
C663.033 534.208 667.34 535.992 671.827 535.992
L697.212 535.992
z
" style="fill:#cb4b16;stroke:#000000;stroke-linejoin:miter;stroke-width:0.5;"/>
   </g>
   <g id="patch_6">
    <path clip-path="url(#p0570a6eff0)" d="
M299.505 19.8186
L303.736 19.8186
C306.909 19.8186 309.025 19.8186 312.198 19.8186
L341.814 19.8186
C350.788 19.8186 359.403 23.387 365.748 29.7322
C372.093 36.0774 375.662 44.6925 375.662 53.666
L375.662 121.361
L392.586 121.361
L367.2 146.746
L341.814 121.361
L358.738 121.361
L358.738 53.666
C358.738 49.1793 356.954 44.8717 353.781 41.6991
C350.609 38.5265 346.301 36.7423 341.814 36.7423
L316.429 36.7423
L316.429 36.7423
L312.198 36.7423
C309.025 36.7423 306.909 36.7423 303.736 36.7423
L299.505 36.7423
L291.043 36.7423
L299.505 28.2804
L291.043 19.8186
L333.353 19.8186
L299.505 19.8186
z
" style="fill:#cb4b16;stroke:#000000;stroke-linejoin:miter;stroke-width:0.5;"/>
   </g>
   <g id="patch_7">
    <path clip-path="url(#p0570a6eff0)" d="
M1221.85 527.53
L1221.85 548.685
C1221.85 564.551 1221.85 575.128 1221.85 590.994
L1221.85 637.534
C1221.85 646.507 1218.28 655.123 1211.93 661.468
C1205.59 667.813 1196.97 671.381 1188 671.381
L714.136 671.381
L714.136 688.305
L688.751 662.92
L714.136 637.534
L714.136 654.458
L1188 654.458
C1192.49 654.458 1196.79 652.673 1199.97 649.501
C1203.14 646.328 1204.92 642.021 1204.92 637.534
L1204.92 612.148
L1204.92 612.148
L1204.92 590.994
C1204.92 575.128 1204.92 564.551 1204.92 548.685
L1204.92 527.53
L1204.92 442.911
L1213.39 451.373
L1221.85 442.911
L1221.85 485.221
L1221.85 527.53
z
" style="fill:#cb4b16;stroke:#000000;stroke-linejoin:miter;stroke-width:0.5;"/>
   </g>
   <g id="patch_8">
    <path clip-path="url(#p0570a6eff0)" d="
M172.577 612.148
L172.577 478.874
C172.577 378.919 172.577 312.281 172.577 212.326
L172.577 53.666
C172.577 44.6925 176.146 36.0774 182.491 29.7322
C188.836 23.387 197.451 19.8186 206.425 19.8186
L274.12 19.8186
L274.12 2.89485
L299.505 28.2804
L274.12 53.666
L274.12 36.7423
L206.425 36.7423
C201.938 36.7423 197.63 38.5265 194.458 41.6991
C191.285 44.8717 189.501 49.1793 189.501 53.666
L189.501 79.0515
L189.501 79.0515
L189.501 212.326
C189.501 312.281 189.501 378.919 189.501 478.874
L189.501 612.148
L189.501 637.534
C189.501 642.021 191.285 646.328 194.458 649.501
C197.63 652.673 201.938 654.458 206.425 654.458
L697.212 654.458
L688.751 662.92
L697.212 671.381
L206.425 671.381
C197.451 671.381 188.836 667.813 182.491 661.468
C176.146 655.123 172.577 646.507 172.577 637.534
z
" style="fill:#cb4b16;stroke:#000000;stroke-linejoin:miter;stroke-width:0.5;"/>
   </g>
   <g id="patch_9">
    <path d="
M-64.8 -64.8" style="fill:none;stroke:#000000;stroke-linecap:square;stroke-linejoin:miter;"/>
   </g>
   <g id="patch_10">
    <path d="
M1620 756" style="fill:none;stroke:#000000;stroke-linecap:square;stroke-linejoin:miter;"/>
   </g>
   <g id="patch_11">
    <path d="
M-64.8 756" style="fill:none;stroke:#000000;stroke-linecap:square;stroke-linejoin:miter;"/>
   </g>
   <g id="patch_12">
    <path d="
M-64.8 756" style="fill:none;stroke:#000000;stroke-linecap:square;stroke-linejoin:miter;"/>
   </g>
   <g id="matplotlib.axis_1"/>
   <g id="matplotlib.axis_2"/>
   <g id="text_1">
    <!-- Systeme solaire -->
    <defs>
     <path d="
M6.09375 13.7969
Q6.09375 18 7.89062 21.1406
Q9.70312 24.2969 13.6406 26.5
Q17.5938 28.7031 23.7969 30.0469
Q30 31.4062 38.7969 31.9062
Q38.4062 35.2969 35.8438 37.1875
Q33.2969 39.0938 28.2031 39.0938
Q24.5938 39.0938 20.9375 37.8438
Q17.2969 36.5938 13.0938 34.5
L7.90625 44.0938
Q13 47 18.8438 48.8906
Q24.7031 50.7969 31.0938 50.7969
Q41.5 50.7969 47.5 45.2969
Q53.5 39.7969 53.5 28.4062
L53.5 0
L41.5 0
L40.4062 5.59375
L40 5.59375
Q36.2031 2.70312 31.7031 0.75
Q27.2031 -1.20312 22.4062 -1.20312
Q18.5938 -1.20312 15.5938 -0.046875
Q12.5938 1.09375 10.5 3.14062
Q8.40625 5.20312 7.25 7.89062
Q6.09375 10.5938 6.09375 13.7969
M20.2031 14.9062
Q20.2031 12.5 22.0469 11.3438
Q23.9062 10.2031 27.0938 10.2031
Q30.4062 10.2031 33.2969 11.5469
Q36.2031 12.9062 38.7969 14.9062
L38.7969 23.0938
Q33.2969 22.7969 29.6875 22.0938
Q26.0938 21.4062 24 20.3438
Q21.9062 19.2969 21.0469 17.8906
Q20.2031 16.5 20.2031 14.9062" id="SourceCodePro-Bold-61"/>
     <path d="
M13.5 18.2969
Q17.2031 15.2969 21.5469 13.3906
Q25.9062 11.5 30.2031 11.5
Q35.2969 11.5 37.6406 13.2031
Q40 14.9062 40 17.7969
Q40 19.2969 39.2969 20.3906
Q38.5938 21.5 37.2969 22.3438
Q36 23.2031 34.1406 23.9531
Q32.2969 24.7031 29.9062 25.5938
L21.5 29.2031
Q18.7969 30.2031 16.25 31.7969
Q13.7031 33.4062 11.7969 35.5469
Q9.90625 37.7031 8.75 40.5469
Q7.59375 43.4062 7.59375 47
Q7.59375 51 9.34375 54.5469
Q11.0938 58.0938 14.25 60.75
Q17.4062 63.4062 21.7969 64.9062
Q26.2031 66.4062 31.5 66.4062
Q37.5 66.4062 43.0938 64.2031
Q48.7031 62 53.2031 57.7969
L45.7031 48.5
Q42.2969 51 39 52.3438
Q35.7031 53.7031 31.5 53.7031
Q27.2031 53.7031 24.8438 52.1406
Q22.5 50.5938 22.5 47.7969
Q22.5 44.7969 25.5 43.2969
Q28.5 41.7969 33.2031 40.0938
L41.0938 36.7031
Q47.5938 34.2969 51.3438 30.0938
Q55.0938 25.9062 55.0938 19
Q55.0938 14.9062 53.3906 11.25
Q51.7031 7.59375 48.5 4.84375
Q45.2969 2.09375 40.5938 0.4375
Q35.9062 -1.20312 29.7969 -1.20312
Q23.2031 -1.20312 16.75 1.14062
Q10.2969 3.5 5 8.20312
z
" id="SourceCodePro-Bold-53"/>
     <path d="
M5.5 24.7969
Q5.5 30.9062 7.64062 35.7031
Q9.79688 40.5 13.3906 43.8438
Q17 47.2031 21.6406 49
Q26.2969 50.7969 31.2969 50.7969
Q37 50.7969 41.3906 49
Q45.7969 47.2031 48.6875 44
Q51.5938 40.7969 53.0938 36.4375
Q54.5938 32.0938 54.5938 27
Q54.5938 25 54.3906 23.3438
Q54.2031 21.7031 54 20.7969
L20.5938 20.7969
Q21.7031 15.0938 25.5938 12.5469
Q29.5 10 35 10
Q38.4062 10 41.4531 10.8438
Q44.5 11.7031 47.7969 13.4062
L52.5938 4.59375
Q48.4062 1.90625 43.2031 0.34375
Q38 -1.20312 33 -1.20312
Q27.2031 -1.20312 22.2031 0.546875
Q17.2031 2.29688 13.5 5.64062
Q9.79688 9 7.64062 13.7969
Q5.5 18.5938 5.5 24.7969
M41.2969 29.9062
Q41.2969 34.2031 39 36.8906
Q36.7031 39.5938 31.5938 39.5938
Q27.5938 39.5938 24.4375 37.25
Q21.2969 34.9062 20.4062 29.9062
z
" id="SourceCodePro-Bold-65"/>
     <path d="
M17.4062 38.0938
L5 38.0938
L5 49
L18.0938 49.5938
L20 62.7969
L32.0938 62.7969
L32.0938 49.5938
L53 49.5938
L53 38.0938
L32.0938 38.0938
L32.0938 20.7031
Q32.0938 15 34.5938 12.6406
Q37.0938 10.2969 42.5 10.2969
Q45.4062 10.2969 47.8438 10.7969
Q50.2969 11.2969 52.5 12.0938
L55.0938 1.5
Q51.7969 0.5 47.6875 -0.34375
Q43.5938 -1.20312 38.7969 -1.20312
Q32.9062 -1.20312 28.7969 0.390625
Q24.7031 2 22.1406 4.84375
Q19.5938 7.70312 18.5 11.7031
Q17.4062 15.7031 17.4062 20.5938
z
" id="SourceCodePro-Bold-74"/>
     <path d="
M7.90625 49.5938
L42.5 49.5938
L42.5 0
L27.7969 0
L27.7969 38.0938
L7.90625 38.0938
z

M34.5 56.9062
Q30.2031 56.9062 27.4531 59.2969
Q24.7031 61.7031 24.7031 65.7969
Q24.7031 69.9062 27.4531 72.4531
Q30.2031 75 34.5 75
Q38.7969 75 41.5469 72.4531
Q44.2969 69.9062 44.2969 65.7969
Q44.2969 61.7031 41.5469 59.2969
Q38.7969 56.9062 34.5 56.9062" id="SourceCodePro-Bold-69"/>
     <path id="SourceCodePro-Bold-20"/>
     <path d="
M11.5938 49.5938
L23.5938 49.5938
L24.7969 38.7969
L25.0938 38.7969
Q28.7969 44.9062 34 47.8438
Q39.2031 50.7969 45.2031 50.7969
Q48.5 50.7969 50.5469 50.2969
Q52.5938 49.7969 54.7969 48.7969
L51.7969 36.5
Q49.5 37.2031 47.6406 37.5469
Q45.7969 37.9062 43 37.9062
Q38.4062 37.9062 33.9531 35.2031
Q29.5 32.5 26.2969 25.7969
L26.2969 0
L11.5938 0
z
" id="SourceCodePro-Bold-72"/>
     <path d="
M11.9062 15.5938
Q16.2031 12.9062 20.5469 11.2969
Q24.9062 9.70312 29.9062 9.70312
Q35 9.70312 37.2031 10.7969
Q39.4062 11.9062 39.4062 13.9062
Q39.4062 16.2031 35.75 17.6406
Q32.0938 19.0938 26.0938 20.7969
Q22.7969 21.7031 19.6406 22.9531
Q16.5 24.2031 14 25.9531
Q11.5 27.7031 9.95312 30
Q8.40625 32.2969 8.40625 35.2969
Q8.40625 38.7031 10 41.5938
Q11.5938 44.5 14.5469 46.5
Q17.5 48.5 21.75 49.6406
Q26 50.7969 31.2969 50.7969
Q37.9062 50.7969 43.3438 48.6406
Q48.7969 46.5 52.7031 44
L46.0938 35.2031
Q42.7031 37.2031 39.0938 38.5469
Q35.5 39.9062 31.5938 39.9062
Q26.9062 39.9062 24.9531 38.9062
Q23 37.9062 23 36
Q23 34.9062 24 34
Q25 33.0938 26.7031 32.3906
Q28.4062 31.7031 30.75 31.0469
Q33.0938 30.4062 35.7031 29.7031
Q39.4062 28.7031 42.7031 27.4531
Q46 26.2031 48.5 24.5
Q51 22.7969 52.5 20.3906
Q54 18 54 14.7969
Q54 11.4062 52.3906 8.5
Q50.7969 5.59375 47.75 3.4375
Q44.7031 1.29688 40.1406 0.046875
Q35.5938 -1.20312 29.5938 -1.20312
Q22.9062 -1.20312 16.5 1
Q10.0938 3.20312 5.29688 6.40625
z
" id="SourceCodePro-Bold-73"/>
     <path d="
M6.20312 70.0938
L35.2969 70.0938
L35.2969 18.7969
Q35.2969 16.5 35.9375 14.9531
Q36.5938 13.4062 37.75 12.4531
Q38.9062 11.5 40.3438 11.0938
Q41.7969 10.7031 43.2969 10.7031
Q45 10.7031 46.8906 11.0469
Q48.7969 11.4062 51.0938 12.2969
L54.4062 1.5
Q52.4062 0.90625 50.7031 0.40625
Q49 -0.09375 47.2969 -0.4375
Q45.5938 -0.796875 43.6875 -1
Q41.7969 -1.20312 39.5 -1.20312
Q30.0938 -1.20312 25.3438 4.34375
Q20.5938 9.90625 20.5938 19.4062
L20.5938 58.5
L6.20312 58.5
z
" id="SourceCodePro-Bold-6c"/>
     <path d="
M4.70312 24.7969
Q4.70312 31 6.79688 35.8438
Q8.90625 40.7031 12.4531 44
Q16 47.2969 20.5469 49.0469
Q25.0938 50.7969 30 50.7969
Q34.9062 50.7969 39.4531 49.0469
Q44 47.2969 47.5469 44
Q51.0938 40.7031 53.1875 35.8438
Q55.2969 31 55.2969 24.7969
Q55.2969 18.5938 53.1875 13.75
Q51.0938 8.90625 47.5469 5.59375
Q44 2.29688 39.4531 0.546875
Q34.9062 -1.20312 30 -1.20312
Q25.0938 -1.20312 20.5469 0.546875
Q16 2.29688 12.4531 5.59375
Q8.90625 8.90625 6.79688 13.75
Q4.70312 18.5938 4.70312 24.7969
M19.7969 24.7969
Q19.7969 18.2969 22.3438 14.5
Q24.9062 10.7031 30 10.7031
Q35.0938 10.7031 37.6406 14.5
Q40.2031 18.2969 40.2031 24.7969
Q40.2031 31.2969 37.6406 35.0938
Q35.0938 38.9062 30 38.9062
Q24.9062 38.9062 22.3438 35.0938
Q19.7969 31.2969 19.7969 24.7969" id="SourceCodePro-Bold-6f"/>
     <path d="
M3.59375 49.5938
L14.5938 49.5938
L15.7031 43.4062
L16.0938 43.4062
Q17.5 46.5 19.9531 48.6406
Q22.4062 50.7969 26.7031 50.7969
Q30 50.7969 32.25 48.75
Q34.5 46.7031 35.4062 42.7031
Q36.7969 46.0938 39.4375 48.4375
Q42.0938 50.7969 46.2969 50.7969
Q51.5 50.7969 54.3906 46.5469
Q57.2969 42.2969 57.2969 34.7969
L57.2969 0
L43.5 0
L43.5 33.7031
Q43.5 38.2969 40.7031 38.2969
Q38 38.2969 36.0938 33.5
L36.0938 0
L24.7969 0
L24.7969 33.7031
Q24.7969 38.2969 21.9062 38.2969
Q20.5 38.2969 19.5 37.0938
Q18.5 35.9062 17.4062 33.5
L17.4062 0
L3.59375 0
z
" id="SourceCodePro-Bold-6d"/>
     <path d="
M9.29688 -7.20312
Q11.2031 -7.79688 13.2031 -7.79688
Q17.5 -7.79688 19.9531 -6
Q22.4062 -4.20312 23.5938 -1.29688
L24.5938 1.29688
L3.09375 49.5938
L17.7031 49.5938
L26 28.2969
Q27.4062 24.7969 28.5938 21.0469
Q29.7969 17.2969 31 13.4062
L31.4062 13.4062
Q32.4062 17.0938 33.5938 20.8438
Q34.7969 24.5938 35.9062 28.2969
L43.2031 49.5938
L57.0938 49.5938
L37.5 -0.5
Q35.7031 -5.20312 33.5938 -8.75
Q31.5 -12.2969 28.7969 -14.6406
Q26.0938 -17 22.5469 -18.2031
Q19 -19.4062 14.2969 -19.4062
Q12.0938 -19.4062 10.1875 -19.1562
Q8.29688 -18.9062 6.70312 -18.4062
L9.29688 -7.20312
z
" id="SourceCodePro-Bold-79"/>
    </defs>
    <g transform="translate(326.091349871 309.094755155)scale(0.3 -0.3)">
     <use xlink:href="#SourceCodePro-Bold-53"/>
     <use x="59.9999847412" xlink:href="#SourceCodePro-Bold-79"/>
     <use x="119.999969482" xlink:href="#SourceCodePro-Bold-73"/>
     <use x="179.999954224" xlink:href="#SourceCodePro-Bold-74"/>
     <use x="239.999938965" xlink:href="#SourceCodePro-Bold-65"/>
     <use x="299.999923706" xlink:href="#SourceCodePro-Bold-6d"/>
     <use x="359.999908447" xlink:href="#SourceCodePro-Bold-65"/>
     <use x="419.999893188" xlink:href="#SourceCodePro-Bold-20"/>
     <use x="479.99987793" xlink:href="#SourceCodePro-Bold-73"/>
     <use x="539.999862671" xlink:href="#SourceCodePro-Bold-6f"/>
     <use x="599.999847412" xlink:href="#SourceCodePro-Bold-6c"/>
     <use x="659.999832153" xlink:href="#SourceCodePro-Bold-61"/>
     <use x="719.999816895" xlink:href="#SourceCodePro-Bold-69"/>
     <use x="779.999801636" xlink:href="#SourceCodePro-Bold-72"/>
     <use x="839.999786377" xlink:href="#SourceCodePro-Bold-65"/>
    </g>
    <!-- combine -->
    <defs>
     <path d="
M6.70312 24.7969
Q6.70312 31 9.04688 35.8438
Q11.4062 40.7031 15.3438 44
Q19.2969 47.2969 24.5 49.0469
Q29.7031 50.7969 35.4062 50.7969
Q41.2969 50.7969 46.0469 48.8906
Q50.7969 47 54 44.0938
L47.2031 35
Q41.7031 38.9062 36.2031 38.9062
Q29.7969 38.9062 25.7969 35.0938
Q21.7969 31.2969 21.7969 24.7969
Q21.7969 18.2969 25.6406 14.5
Q29.5 10.7031 35.7031 10.7031
Q39.5938 10.7031 42.8906 12.0938
Q46.2031 13.5 48.7969 15.4062
L54.7969 6.09375
Q50.2969 2.29688 44.8438 0.546875
Q39.4062 -1.20312 34.2969 -1.20312
Q28.4062 -1.20312 23.4062 0.546875
Q18.4062 2.29688 14.6562 5.59375
Q10.9062 8.90625 8.79688 13.75
Q6.70312 18.5938 6.70312 24.7969" id="SourceCodePro-Bold-63"/>
     <path d="
M7.20312 70.0938
L21.9062 70.0938
L21.9062 52.9062
L21.5 45.0938
Q24.4062 47.7969 28.0469 49.2969
Q31.7031 50.7969 35.2969 50.7969
Q39.9062 50.7969 43.6562 49
Q47.4062 47.2031 49.9531 43.9531
Q52.5 40.7031 53.8906 36.0469
Q55.2969 31.4062 55.2969 25.7031
Q55.2969 19.2969 53.5 14.2969
Q51.7031 9.29688 48.7031 5.84375
Q45.7031 2.40625 41.8438 0.59375
Q38 -1.20312 33.7969 -1.20312
Q30.2969 -1.20312 26.8438 0.5
Q23.4062 2.20312 20.2969 5.40625
L19.9062 5.40625
L18.7031 0
L7.20312 0
z

M21.9062 14.0938
Q24 12.2969 26.25 11.5469
Q28.5 10.7969 30.5 10.7969
Q34.5938 10.7969 37.3906 14.25
Q40.2031 17.7031 40.2031 25.4062
Q40.2031 38.7969 31.0938 38.7969
Q26.4062 38.7969 21.9062 34.2031
z
" id="SourceCodePro-Bold-62"/>
     <path d="
M7.20312 49.5938
L19.2031 49.5938
L20.2969 43
L20.7031 43
Q23.9062 46.2031 28.0469 48.5
Q32.2031 50.7969 37.7969 50.7969
Q46.2031 50.7969 50.0938 45.3906
Q54 40 54 30.5938
L54 0
L39.2969 0
L39.2969 28.7031
Q39.2969 33.7031 37.6875 36
Q36.0938 38.2969 32 38.2969
Q29 38.2969 26.75 37
Q24.5 35.7031 21.9062 33.0938
L21.9062 0
L7.20312 0
z
" id="SourceCodePro-Bold-6e"/>
    </defs>
    <g transform="translate(399.096818621 340.150380155)scale(0.3 -0.3)">
     <use xlink:href="#SourceCodePro-Bold-63"/>
     <use x="59.9999847412" xlink:href="#SourceCodePro-Bold-6f"/>
     <use x="119.999969482" xlink:href="#SourceCodePro-Bold-6d"/>
     <use x="179.999954224" xlink:href="#SourceCodePro-Bold-62"/>
     <use x="239.999938965" xlink:href="#SourceCodePro-Bold-69"/>
     <use x="299.999923706" xlink:href="#SourceCodePro-Bold-6e"/>
     <use x="359.999908447" xlink:href="#SourceCodePro-Bold-65"/>
    </g>
   </g>
   <g id="text_2">
    <!-- Production -->
    <defs>
     <path d="
M10.2031 65.5938
L30.2969 65.5938
Q35.7031 65.5938 40.2031 64.5938
Q44.7031 63.5938 47.8438 61.3438
Q51 59.0938 52.75 55.3906
Q54.5 51.7031 54.5 46.2969
Q54.5 41.0938 52.75 37.2969
Q51 33.5 47.7969 31
Q44.5938 28.5 40.1406 27.25
Q35.7031 26 30.2969 26
L18.5 26
L18.5 0
L10.2031 0
z

M29.2031 32.7969
Q37.9062 32.7969 42.0469 36.0469
Q46.2031 39.2969 46.2031 46.2969
Q46.2031 53.4062 41.9531 56.1562
Q37.7031 58.9062 29.2031 58.9062
L18.5 58.9062
L18.5 32.7969
z
" id="SourceCodePro-Regular-50"/>
     <path d="
M20.5938 41.9062
L6.90625 41.9062
L6.90625 48.0938
L20.9062 48.5938
L22 62.2031
L28.7969 62.2031
L28.7969 48.5938
L52.5938 48.5938
L52.5938 41.9062
L28.7969 41.9062
L28.7969 18.7969
Q28.7969 15.5 29.3906 13.0469
Q30 10.5938 31.3906 8.89062
Q32.7969 7.20312 35.1875 6.34375
Q37.5938 5.5 41.0938 5.5
Q44.5938 5.5 47.3906 6.09375
Q50.2031 6.70312 52.7969 7.70312
L54.5 1.70312
Q51.2969 0.5 47.2969 -0.34375
Q43.2969 -1.20312 39.2969 -1.20312
Q34 -1.20312 30.3906 0.25
Q26.7969 1.70312 24.6406 4.34375
Q22.5 7 21.5469 10.7031
Q20.5938 14.4062 20.5938 18.9062
z
" id="SourceCodePro-Regular-74"/>
     <path d="
M50.5 0
L43.7969 0
L43.0938 8.5
L42.7031 8.5
Q39 4.20312 34.6406 1.5
Q30.2969 -1.20312 24.5938 -1.20312
Q15.7969 -1.20312 11.75 3.75
Q7.70312 8.70312 7.70312 18.4062
L7.70312 48.5938
L16 48.5938
L16 19.5
Q16 12.5938 18.5469 9.25
Q21.0938 5.90625 27.2031 5.90625
Q31.4062 5.90625 34.7969 8.04688
Q38.2031 10.2031 42.2969 14.9062
L42.2969 48.5938
L50.5 48.5938
z
" id="SourceCodePro-Regular-75"/>
     <path d="
M14.5938 48.5938
L21.4062 48.5938
L22.0938 37.0938
L22.4062 37.0938
Q26.2031 43 31.75 46.3906
Q37.2969 49.7969 44.0938 49.7969
Q46.7969 49.7969 49.0469 49.3438
Q51.2969 48.9062 53.5938 47.7969
L51.9062 40.7031
Q49.2969 41.5938 47.5 42
Q45.7031 42.4062 42.7969 42.4062
Q37.2969 42.4062 32.25 39.25
Q27.2031 36.0938 22.7969 28.5
L22.7969 0
L14.5938 0
z
" id="SourceCodePro-Regular-72"/>
     <path d="
M9.29688 48.5938
L16.0938 48.5938
L16.7969 40.2969
L17.2031 40.2969
Q21 44.4062 25.3906 47.0938
Q29.7969 49.7969 35.5 49.7969
Q44.2031 49.7969 48.25 44.8438
Q52.2969 39.9062 52.2969 30.2031
L52.2969 0
L44.0938 0
L44.0938 29.0938
Q44.0938 36 41.5 39.3438
Q38.9062 42.7031 32.9062 42.7031
Q30.7031 42.7031 28.8438 42.1406
Q27 41.5938 25.2031 40.5
Q23.4062 39.4062 21.5 37.75
Q19.5938 36.0938 17.5 33.9062
L17.5 0
L9.29688 0
z
" id="SourceCodePro-Regular-6e"/>
     <path d="
M6 24.2031
Q6 30.2969 7.95312 35.0469
Q9.90625 39.7969 13.2031 43.0938
Q16.5 46.4062 20.8438 48.0938
Q25.2031 49.7969 30 49.7969
Q34.7969 49.7969 39.1406 48.0938
Q43.5 46.4062 46.7969 43.0938
Q50.0938 39.7969 52.0469 35.0469
Q54 30.2969 54 24.2031
Q54 18.2031 52.0469 13.4531
Q50.0938 8.70312 46.7969 5.45312
Q43.5 2.20312 39.1406 0.5
Q34.7969 -1.20312 30 -1.20312
Q25.2031 -1.20312 20.8438 0.5
Q16.5 2.20312 13.2031 5.45312
Q9.90625 8.70312 7.95312 13.4531
Q6 18.2031 6 24.2031
M14.5 24.2031
Q14.5 20 15.5938 16.5938
Q16.7031 13.2031 18.75 10.75
Q20.7969 8.29688 23.6406 6.9375
Q26.5 5.59375 30 5.59375
Q33.5 5.59375 36.3438 6.9375
Q39.2031 8.29688 41.25 10.75
Q43.2969 13.2031 44.3906 16.5938
Q45.5 20 45.5 24.2031
Q45.5 28.4062 44.3906 31.8438
Q43.2969 35.2969 41.25 37.7969
Q39.2031 40.2969 36.3438 41.6406
Q33.5 43 30 43
Q26.5 43 23.6406 41.6406
Q20.7969 40.2969 18.75 37.7969
Q16.7031 35.2969 15.5938 31.8438
Q14.5 28.4062 14.5 24.2031" id="SourceCodePro-Regular-6f"/>
     <path d="
M9 48.5938
L39.7969 48.5938
L39.7969 0
L31.5938 0
L31.5938 41.9062
L9 41.9062
z

M34.7969 58.5938
Q31.9062 58.5938 30.0469 60.2969
Q28.2031 62 28.2031 64.9062
Q28.2031 67.7969 30.0469 69.5469
Q31.9062 71.2969 34.7969 71.2969
Q37.5938 71.2969 39.5 69.5469
Q41.4062 67.7969 41.4062 64.9062
Q41.4062 62 39.5 60.2969
Q37.5938 58.5938 34.7969 58.5938" id="SourceCodePro-Regular-69"/>
     <path d="
M8 24.2031
Q8 30.2969 10.1406 35.0469
Q12.2969 39.7969 16 43.0938
Q19.7031 46.4062 24.6406 48.0938
Q29.5938 49.7969 35.0938 49.7969
Q41.0938 49.7969 45.4375 47.6875
Q49.7969 45.5938 52.7969 42.7031
L48.7031 37.4062
Q45.7031 40 42.4531 41.5
Q39.2031 43 35.4062 43
Q31.2031 43 27.7031 41.6406
Q24.2031 40.2969 21.75 37.7969
Q19.2969 35.2969 17.8906 31.8438
Q16.5 28.4062 16.5 24.2031
Q16.5 20 17.8438 16.5938
Q19.2031 13.2031 21.6406 10.75
Q24.0938 8.29688 27.5469 6.9375
Q31 5.59375 35.2031 5.59375
Q39.7031 5.59375 43.4531 7.34375
Q47.2031 9.09375 50.2969 11.7031
L53.9062 6.40625
Q49.9062 2.79688 44.9531 0.796875
Q40 -1.20312 34.5938 -1.20312
Q28.9062 -1.20312 24.0469 0.5
Q19.2031 2.20312 15.5938 5.45312
Q12 8.70312 10 13.4531
Q8 18.2031 8 24.2031" id="SourceCodePro-Regular-63"/>
     <path d="
M6 24.2031
Q6 30.0938 7.84375 34.8438
Q9.70312 39.5938 12.75 42.8906
Q15.7969 46.2031 19.7969 48
Q23.7969 49.7969 28.0938 49.7969
Q32.5938 49.7969 36 48.0938
Q39.4062 46.4062 42.7969 43.5
L42.5 52.5
L42.5 71.2031
L50.7031 71.2031
L50.7031 0
L43.9062 0
L43.2031 6.40625
L42.9062 6.40625
Q39.9062 3.29688 35.75 1.04688
Q31.5938 -1.20312 27.0938 -1.20312
Q22.2969 -1.20312 18.4375 0.5
Q14.5938 2.20312 11.7969 5.45312
Q9 8.70312 7.5 13.3906
Q6 18.0938 6 24.2031
M14.5 24.2969
Q14.5 15.5 18.25 10.5938
Q22 5.70312 28.7969 5.70312
Q36 5.70312 42.5 13
L42.5 37.2031
Q39.2031 40.2969 36.0469 41.5938
Q32.9062 42.9062 29.7031 42.9062
Q26.5 42.9062 23.75 41.5469
Q21 40.2031 18.9531 37.75
Q16.9062 35.2969 15.7031 31.8906
Q14.5 28.5 14.5 24.2969" id="SourceCodePro-Regular-64"/>
    </defs>
    <g transform="translate(198.986501289 301.997586985)scale(0.2 -0.2)">
     <use xlink:href="#SourceCodePro-Regular-50"/>
     <use x="59.9999847412" xlink:href="#SourceCodePro-Regular-72"/>
     <use x="119.999969482" xlink:href="#SourceCodePro-Regular-6f"/>
     <use x="179.999954224" xlink:href="#SourceCodePro-Regular-64"/>
     <use x="239.999938965" xlink:href="#SourceCodePro-Regular-75"/>
     <use x="299.999923706" xlink:href="#SourceCodePro-Regular-63"/>
     <use x="359.999908447" xlink:href="#SourceCodePro-Regular-74"/>
     <use x="419.999893188" xlink:href="#SourceCodePro-Regular-69"/>
     <use x="479.99987793" xlink:href="#SourceCodePro-Regular-6f"/>
     <use x="539.999862671" xlink:href="#SourceCodePro-Regular-6e"/>
    </g>
    <!-- solaire -->
    <defs>
     <path d="
M8.09375 12.5938
Q8.09375 16.7031 10.0469 19.75
Q12 22.7969 16.25 25
Q20.5 27.2031 27.2031 28.5938
Q33.9062 30 43.2969 30.7969
Q43.2031 33.2969 42.5 35.5
Q41.7969 37.7031 40.2969 39.3438
Q38.7969 41 36.3438 42
Q33.9062 43 30.4062 43
Q25.5938 43 21.1875 41.1406
Q16.7969 39.2969 13.4062 37.2031
L10.2031 42.7969
Q12 44 14.4531 45.25
Q16.9062 46.5 19.6562 47.5
Q22.4062 48.5 25.5 49.1406
Q28.5938 49.7969 31.7969 49.7969
Q41.7969 49.7969 46.6406 44.3438
Q51.5 38.9062 51.5 29.7969
L51.5 0
L44.7969 0
L44.0938 6.59375
L43.7969 6.59375
Q39.7031 3.40625 34.75 1.09375
Q29.7969 -1.20312 24.5938 -1.20312
Q21.2031 -1.20312 18.2031 -0.25
Q15.2031 0.703125 12.9531 2.45312
Q10.7031 4.20312 9.39062 6.75
Q8.09375 9.29688 8.09375 12.5938
M16.0938 13.2031
Q16.0938 11.0938 17 9.64062
Q17.9062 8.20312 19.3438 7.25
Q20.7969 6.29688 22.75 5.84375
Q24.7031 5.40625 26.7969 5.40625
Q31 5.40625 35.0469 7.25
Q39.0938 9.09375 43.2969 12.5938
L43.2969 25.4062
Q35.5 24.7969 30.25 23.6875
Q25 22.5938 21.8438 21.0469
Q18.7031 19.5 17.3906 17.5469
Q16.0938 15.5938 16.0938 13.2031" id="SourceCodePro-Regular-61"/>
     <path d="
M8.09375 71.2031
L32.9062 71.2031
L32.9062 15.7031
Q32.9062 10.2969 35.4531 7.9375
Q38 5.59375 42.4062 5.59375
Q46.4062 5.59375 51.5938 7.90625
L53.7031 1.70312
Q50.4062 0.5 47.5 -0.34375
Q44.5938 -1.20312 40.5938 -1.20312
Q32.7969 -1.20312 28.75 3.1875
Q24.7031 7.59375 24.7031 16.2969
L24.7031 64.5
L8.09375 64.5
z
" id="SourceCodePro-Regular-6c"/>
     <path d="
M6.90625 24.2031
Q6.90625 30.2031 9 34.9531
Q11.0938 39.7031 14.5469 43
Q18 46.2969 22.4531 48.0469
Q26.9062 49.7969 31.5938 49.7969
Q36.7969 49.7969 40.8906 48.1406
Q45 46.5 47.8438 43.5
Q50.7031 40.5 52.2031 36.2969
Q53.7031 32.0938 53.7031 27
Q53.7031 24.2969 53.4062 22.5
L15.4062 22.5
Q15.9062 14.5938 20.9531 10
Q26 5.40625 34 5.40625
Q38.2969 5.40625 41.8438 6.59375
Q45.4062 7.79688 48.7969 9.90625
L51.7031 4.5
Q48.0938 2.20312 43.5 0.5
Q38.9062 -1.20312 33 -1.20312
Q27.5938 -1.20312 22.8438 0.546875
Q18.0938 2.29688 14.5469 5.54688
Q11 8.79688 8.95312 13.5
Q6.90625 18.2031 6.90625 24.2031
M46.0938 27.9062
Q46.0938 35.4062 42.2969 39.3438
Q38.5 43.2969 31.7031 43.2969
Q28.7031 43.2969 25.9531 42.25
Q23.2031 41.2031 21 39.25
Q18.7969 37.2969 17.25 34.4375
Q15.7031 31.5938 15.2969 27.9062
z
" id="SourceCodePro-Regular-65"/>
     <path d="
M11.2031 11.7969
Q15.2969 8.79688 20 7
Q24.7031 5.20312 31.2969 5.20312
Q37.9062 5.20312 41.0938 7.39062
Q44.2969 9.59375 44.2969 12.7969
Q44.2969 15.5938 40.8438 17.7969
Q37.4062 20 28.5 22.2031
Q24.7031 23.0938 21.3438 24.3906
Q18 25.7031 15.5 27.4531
Q13 29.2031 11.5 31.2969
Q10 33.4062 10 36
Q10 38.9062 11.2969 41.4531
Q12.5938 44 15.1406 45.8438
Q17.7031 47.7031 21.5469 48.75
Q25.4062 49.7969 30.4062 49.7969
Q35.9062 49.7969 41.0938 47.9375
Q46.2969 46.0938 49.9062 43.5938
L45.9062 38.2969
Q42.7031 40.5938 38.7969 42
Q34.9062 43.4062 30.4062 43.4062
Q27 43.4062 24.7031 42.8438
Q22.4062 42.2969 21 41.3438
Q19.5938 40.4062 19 39.0938
Q18.4062 37.7969 18.4062 36.4062
Q18.4062 33.4062 22.5 31.4531
Q26.5938 29.5 33.2031 27.7969
Q43.0938 25.2969 47.8438 22.0938
Q52.5938 18.9062 52.5938 13.2969
Q52.5938 10.2969 51.1875 7.6875
Q49.7969 5.09375 47.0469 3.09375
Q44.2969 1.09375 40.25 -0.046875
Q36.2031 -1.20312 31 -1.20312
Q23.7969 -1.20312 17.75 1.04688
Q11.7031 3.29688 7.20312 6.40625
z
" id="SourceCodePro-Regular-73"/>
    </defs>
    <g transform="translate(216.545876289 323.186336985)scale(0.2 -0.2)">
     <use xlink:href="#SourceCodePro-Regular-73"/>
     <use x="59.9999847412" xlink:href="#SourceCodePro-Regular-6f"/>
     <use x="119.999969482" xlink:href="#SourceCodePro-Regular-6c"/>
     <use x="179.999954224" xlink:href="#SourceCodePro-Regular-61"/>
     <use x="239.999938965" xlink:href="#SourceCodePro-Regular-69"/>
     <use x="299.999923706" xlink:href="#SourceCodePro-Regular-72"/>
     <use x="359.999908447" xlink:href="#SourceCodePro-Regular-65"/>
    </g>
   </g>
   <g id="text_3">
    <!-- Appoint -->
    <defs>
     <path d="
M39.7031 26.7031
L36.5938 36.7031
Q34.9062 42.2031 33.2969 47.6406
Q31.7031 53.0938 30.0938 58.7969
L29.7031 58.7969
Q28.0938 53.0938 26.5 47.6406
Q24.9062 42.2031 23.2031 36.7031
L20.0938 26.7031
z

M41.7969 20
L18 20
L11.7031 0
L3.20312 0
L25.2969 65.5938
L34.7031 65.5938
L56.7969 0
L48 0
z
" id="SourceCodePro-Regular-41"/>
     <path d="
M17.5 -4.09375
L17.5 -20.5
L9.29688 -20.5
L9.29688 48.5938
L16.0938 48.5938
L16.7969 42.4062
L17.0938 42.4062
Q20.5 45.5938 24.9531 47.6875
Q29.4062 49.7969 33.9062 49.7969
Q38.7969 49.7969 42.5469 48.0469
Q46.2969 46.2969 48.8438 43.0469
Q51.4062 39.7969 52.7031 35.25
Q54 30.7031 54 25
Q54 18.7969 52.2031 13.9375
Q50.4062 9.09375 47.3438 5.6875
Q44.2969 2.29688 40.2969 0.546875
Q36.2969 -1.20312 31.9062 -1.20312
Q28.5 -1.20312 24.5469 0.4375
Q20.5938 2.09375 17.2969 5.09375
z

M17.5 11.4062
Q21 8.29688 24.5 7
Q28 5.70312 30.5 5.70312
Q37.0938 5.70312 41.2969 10.7969
Q45.5 15.9062 45.5 25
Q45.5 29 44.7031 32.2969
Q43.9062 35.5938 42.25 37.9375
Q40.5938 40.2969 38 41.5938
Q35.4062 42.9062 31.7969 42.9062
Q28.5938 42.9062 24.9375 41.1562
Q21.2969 39.4062 17.5 35.5938
z
" id="SourceCodePro-Regular-70"/>
    </defs>
    <g transform="translate(207.604333119 386.614268686)scale(0.2 -0.2)">
     <use xlink:href="#SourceCodePro-Regular-41"/>
     <use x="59.9999847412" xlink:href="#SourceCodePro-Regular-70"/>
     <use x="119.999969482" xlink:href="#SourceCodePro-Regular-70"/>
     <use x="179.999954224" xlink:href="#SourceCodePro-Regular-6f"/>
     <use x="239.999938965" xlink:href="#SourceCodePro-Regular-69"/>
     <use x="299.999923706" xlink:href="#SourceCodePro-Regular-6e"/>
     <use x="359.999908447" xlink:href="#SourceCodePro-Regular-74"/>
    </g>
    <!-- Electrique -->
    <defs>
     <path d="
M11.5 65.5938
L52 65.5938
L52 58.5938
L19.9062 58.5938
L19.9062 38
L47 38
L47 30.9062
L19.9062 30.9062
L19.9062 7.09375
L53 7.09375
L53 0
L11.5 0
z
" id="SourceCodePro-Regular-45"/>
     <path d="
M6 24.2031
Q6 30.0938 7.84375 34.8438
Q9.70312 39.5938 12.75 42.8906
Q15.7969 46.2031 19.7969 48
Q23.7969 49.7969 28.0938 49.7969
Q32.5938 49.7969 36.0938 48.0938
Q39.5938 46.4062 43.0938 43.2031
L43.4062 43.2031
L44.0938 48.5938
L50.7031 48.5938
L50.7031 -20.5
L42.5 -20.5
L42.5 -2.59375
L42.9062 6.20312
Q39.7031 3.09375 35.6406 0.9375
Q31.5938 -1.20312 27.0938 -1.20312
Q22.2969 -1.20312 18.4375 0.5
Q14.5938 2.20312 11.7969 5.45312
Q9 8.70312 7.5 13.3906
Q6 18.0938 6 24.2031
M14.5 24.2969
Q14.5 15.5 18.25 10.5938
Q22 5.70312 28.7969 5.70312
Q36 5.70312 42.5 13
L42.5 37.2031
Q39.2031 40.2969 36.0469 41.5938
Q32.9062 42.9062 29.7031 42.9062
Q26.5 42.9062 23.75 41.5469
Q21 40.2031 18.9531 37.75
Q16.9062 35.2969 15.7031 31.8906
Q14.5 28.5 14.5 24.2969" id="SourceCodePro-Regular-71"/>
    </defs>
    <g transform="translate(190.513708119 407.825518686)scale(0.2 -0.2)">
     <use xlink:href="#SourceCodePro-Regular-45"/>
     <use x="59.9999847412" xlink:href="#SourceCodePro-Regular-6c"/>
     <use x="119.999969482" xlink:href="#SourceCodePro-Regular-65"/>
     <use x="179.999954224" xlink:href="#SourceCodePro-Regular-63"/>
     <use x="239.999938965" xlink:href="#SourceCodePro-Regular-74"/>
     <use x="299.999923706" xlink:href="#SourceCodePro-Regular-72"/>
     <use x="359.999908447" xlink:href="#SourceCodePro-Regular-69"/>
     <use x="419.999893188" xlink:href="#SourceCodePro-Regular-71"/>
     <use x="479.99987793" xlink:href="#SourceCodePro-Regular-75"/>
     <use x="539.999862671" xlink:href="#SourceCodePro-Regular-65"/>
    </g>
   </g>
   <g id="text_4">
    <!-- Pertes -->
    <g transform="translate(519.121762242 140.841079253)scale(0.2 -0.2)">
     <use xlink:href="#SourceCodePro-Regular-50"/>
     <use x="59.9999847412" xlink:href="#SourceCodePro-Regular-65"/>
     <use x="119.999969482" xlink:href="#SourceCodePro-Regular-72"/>
     <use x="179.999954224" xlink:href="#SourceCodePro-Regular-74"/>
     <use x="239.999938965" xlink:href="#SourceCodePro-Regular-65"/>
     <use x="299.999923706" xlink:href="#SourceCodePro-Regular-73"/>
    </g>
    <!-- echangeur -->
    <defs>
     <path d="
M9.29688 71.2031
L17.5 71.2031
L17.5 51.7969
L17.0938 40.2969
Q21 44.4062 25.3906 47.0938
Q29.7969 49.7969 35.5 49.7969
Q44.2031 49.7969 48.25 44.8438
Q52.2969 39.9062 52.2969 30.2031
L52.2969 0
L44.0938 0
L44.0938 29.0938
Q44.0938 36 41.5 39.3438
Q38.9062 42.7031 32.9062 42.7031
Q30.7031 42.7031 28.8438 42.1406
Q27 41.5938 25.2031 40.5
Q23.4062 39.4062 21.5 37.75
Q19.5938 36.0938 17.5 33.9062
L17.5 0
L9.29688 0
z
" id="SourceCodePro-Regular-68"/>
     <path d="
M14.2969 -8.09375
Q14.2969 -11.9062 18.3438 -14.2969
Q22.4062 -16.7031 30.2031 -16.7031
Q34.4062 -16.7031 37.7969 -15.8438
Q41.2031 -15 43.5938 -13.5938
Q46 -12.2031 47.25 -10.3906
Q48.5 -8.59375 48.5 -6.70312
Q48.5 -3.20312 45.75 -2
Q43 -0.796875 37.4062 -0.796875
L27.9062 -0.796875
Q25.7969 -0.796875 23.9375 -0.640625
Q22.0938 -0.5 20.5 0
Q17 -1.90625 15.6406 -3.95312
Q14.2969 -6 14.2969 -8.09375
M7.20312 -8.90625
Q7.20312 -6 9.25 -3.20312
Q11.2969 -0.40625 15.2031 1.90625
L15.2031 2.29688
Q13.2031 3.40625 11.7031 5.29688
Q10.2031 7.20312 10.2031 10.2969
Q10.2031 12.5938 11.7031 15.0469
Q13.2031 17.5 16 19.4062
L16 19.7969
Q13.5 21.7031 11.75 24.8438
Q10 28 10 32.4062
Q10 36.4062 11.5469 39.5938
Q13.0938 42.7969 15.6875 45.0469
Q18.2969 47.2969 21.75 48.5469
Q25.2031 49.7969 29.0938 49.7969
Q33.0938 49.7969 36.2969 48.5938
L56.4062 48.5938
L56.4062 42.2969
L43.4062 42.2969
Q45.0938 40.5 46.5 37.8906
Q47.9062 35.2969 47.9062 32.0938
Q47.9062 28.2031 46.4531 25.0938
Q45 22 42.4531 19.8438
Q39.9062 17.7031 36.4531 16.5469
Q33 15.4062 29.0938 15.4062
Q27.2031 15.4062 25.0469 15.8438
Q22.9062 16.2969 20.9062 17.2031
Q17.0938 14.7969 17.0938 11.5938
Q17.0938 8.70312 19.75 7.34375
Q22.4062 6 27.2031 6
L38.0938 6
Q47.5 6 52.0469 3.39062
Q56.5938 0.796875 56.5938 -5.40625
Q56.5938 -8.79688 54.6875 -11.8906
Q52.7969 -15 49.2969 -17.2969
Q45.7969 -19.5938 40.7969 -21
Q35.7969 -22.4062 29.5938 -22.4062
Q18.9062 -22.4062 13.0469 -18.9062
Q7.20312 -15.4062 7.20312 -8.90625
M29.0938 20.9062
Q33.7969 20.9062 37.0469 24
Q40.2969 27.0938 40.2969 32.4062
Q40.2969 34.9062 39.3906 37
Q38.5 39.0938 37 40.5938
Q35.5 42.0938 33.4531 42.9375
Q31.4062 43.7969 29.0938 43.7969
Q26.7969 43.7969 24.75 42.9375
Q22.7031 42.0938 21.2031 40.5938
Q19.7031 39.0938 18.7969 37
Q17.9062 34.9062 17.9062 32.4062
Q17.9062 27.0938 21.2031 24
Q24.5 20.9062 29.0938 20.9062" id="SourceCodePro-Regular-67"/>
    </defs>
    <g transform="translate(500.692074742 162.029829253)scale(0.2 -0.2)">
     <use xlink:href="#SourceCodePro-Regular-65"/>
     <use x="59.9999847412" xlink:href="#SourceCodePro-Regular-63"/>
     <use x="119.999969482" xlink:href="#SourceCodePro-Regular-68"/>
     <use x="179.999954224" xlink:href="#SourceCodePro-Regular-61"/>
     <use x="239.999938965" xlink:href="#SourceCodePro-Regular-6e"/>
     <use x="299.999923706" xlink:href="#SourceCodePro-Regular-67"/>
     <use x="359.999908447" xlink:href="#SourceCodePro-Regular-65"/>
     <use x="419.999893188" xlink:href="#SourceCodePro-Regular-75"/>
     <use x="479.99987793" xlink:href="#SourceCodePro-Regular-72"/>
    </g>
   </g>
   <g id="text_5">
    <!-- Pertes -->
    <g transform="translate(578.354751933 73.5162338918)scale(0.2 -0.2)">
     <use xlink:href="#SourceCodePro-Regular-50"/>
     <use x="59.9999847412" xlink:href="#SourceCodePro-Regular-65"/>
     <use x="119.999969482" xlink:href="#SourceCodePro-Regular-72"/>
     <use x="179.999954224" xlink:href="#SourceCodePro-Regular-74"/>
     <use x="239.999938965" xlink:href="#SourceCodePro-Regular-65"/>
     <use x="299.999923706" xlink:href="#SourceCodePro-Regular-73"/>
    </g>
    <!-- lineiques -->
    <g transform="translate(560.143814433 94.7274838918)scale(0.2 -0.2)">
     <use xlink:href="#SourceCodePro-Regular-6c"/>
     <use x="59.9999847412" xlink:href="#SourceCodePro-Regular-69"/>
     <use x="119.999969482" xlink:href="#SourceCodePro-Regular-6e"/>
     <use x="179.999954224" xlink:href="#SourceCodePro-Regular-65"/>
     <use x="239.999938965" xlink:href="#SourceCodePro-Regular-69"/>
     <use x="299.999923706" xlink:href="#SourceCodePro-Regular-71"/>
     <use x="359.999908447" xlink:href="#SourceCodePro-Regular-75"/>
     <use x="419.999893188" xlink:href="#SourceCodePro-Regular-65"/>
     <use x="479.99987793" xlink:href="#SourceCodePro-Regular-73"/>
    </g>
   </g>
   <g id="text_6">
    <!-- Production de chauffage -->
    <defs>
     <path id="SourceCodePro-Regular-20"/>
     <path d="
M55.9062 63.4062
Q52.9062 64.7969 50.3438 65.25
Q47.7969 65.7031 44.5938 65.7031
Q38 65.7031 35.1406 62.3438
Q32.2969 59 32.2969 53
L32.2969 48.5938
L52.7031 48.5938
L52.7031 41.9062
L32.2969 41.9062
L32.2969 0
L24.2031 0
L24.2031 41.9062
L10.2969 41.9062
L10.2969 48.0938
L24.2031 48.5938
L24.2031 52.7031
Q24.2031 61.5938 28.9531 67
Q33.7031 72.4062 43.7969 72.4062
Q51 72.4062 57.7969 69.5938
z
" id="SourceCodePro-Regular-66"/>
    </defs>
    <g transform="translate(661.384326675 304.059793814)scale(0.2 -0.2)">
     <use xlink:href="#SourceCodePro-Regular-50"/>
     <use x="59.9999847412" xlink:href="#SourceCodePro-Regular-72"/>
     <use x="119.999969482" xlink:href="#SourceCodePro-Regular-6f"/>
     <use x="179.999954224" xlink:href="#SourceCodePro-Regular-64"/>
     <use x="239.999938965" xlink:href="#SourceCodePro-Regular-75"/>
     <use x="299.999923706" xlink:href="#SourceCodePro-Regular-63"/>
     <use x="359.999908447" xlink:href="#SourceCodePro-Regular-74"/>
     <use x="419.999893188" xlink:href="#SourceCodePro-Regular-69"/>
     <use x="479.99987793" xlink:href="#SourceCodePro-Regular-6f"/>
     <use x="539.999862671" xlink:href="#SourceCodePro-Regular-6e"/>
     <use x="599.999847412" xlink:href="#SourceCodePro-Regular-20"/>
     <use x="659.999832153" xlink:href="#SourceCodePro-Regular-64"/>
     <use x="719.999816895" xlink:href="#SourceCodePro-Regular-65"/>
     <use x="779.999801636" xlink:href="#SourceCodePro-Regular-20"/>
     <use x="839.999786377" xlink:href="#SourceCodePro-Regular-63"/>
     <use x="899.999771118" xlink:href="#SourceCodePro-Regular-68"/>
     <use x="959.999755859" xlink:href="#SourceCodePro-Regular-61"/>
     <use x="1019.9997406" xlink:href="#SourceCodePro-Regular-75"/>
     <use x="1079.99972534" xlink:href="#SourceCodePro-Regular-66"/>
     <use x="1139.99971008" xlink:href="#SourceCodePro-Regular-66"/>
     <use x="1199.99969482" xlink:href="#SourceCodePro-Regular-61"/>
     <use x="1259.99967957" xlink:href="#SourceCodePro-Regular-67"/>
     <use x="1319.99966431" xlink:href="#SourceCodePro-Regular-65"/>
    </g>
   </g>
   <g id="text_7">
    <!-- Production -->
    <g transform="translate(512.075161082 564.315112758)scale(0.2 -0.2)">
     <use xlink:href="#SourceCodePro-Regular-50"/>
     <use x="59.9999847412" xlink:href="#SourceCodePro-Regular-72"/>
     <use x="119.999969482" xlink:href="#SourceCodePro-Regular-6f"/>
     <use x="179.999954224" xlink:href="#SourceCodePro-Regular-64"/>
     <use x="239.999938965" xlink:href="#SourceCodePro-Regular-75"/>
     <use x="299.999923706" xlink:href="#SourceCodePro-Regular-63"/>
     <use x="359.999908447" xlink:href="#SourceCodePro-Regular-74"/>
     <use x="419.999893188" xlink:href="#SourceCodePro-Regular-69"/>
     <use x="479.99987793" xlink:href="#SourceCodePro-Regular-6f"/>
     <use x="539.999862671" xlink:href="#SourceCodePro-Regular-6e"/>
    </g>
    <!-- ECS -->
    <defs>
     <path d="
M6.59375 32.7969
Q6.59375 40.7031 8.75 47
Q10.9062 53.2969 14.7969 57.6875
Q18.7031 62.0938 24.0938 64.4375
Q29.5 66.7969 35.9062 66.7969
Q41.9062 66.7969 46.4062 64.3906
Q50.9062 62 53.7969 58.7969
L49.0938 53.5
Q46.5 56.2031 43.2969 57.8438
Q40.0938 59.5 35.9062 59.5
Q31.2031 59.5 27.3438 57.6406
Q23.5 55.7969 20.7969 52.3438
Q18.0938 48.9062 16.6406 44
Q15.2031 39.0938 15.2031 33
Q15.2031 26.7969 16.6406 21.8438
Q18.0938 16.9062 20.7969 13.4062
Q23.5 9.90625 27.3438 8
Q31.2031 6.09375 35.9062 6.09375
Q40.4062 6.09375 43.9062 8
Q47.4062 9.90625 50.5938 13.4062
L55.4062 8.29688
Q51.5 3.79688 46.5938 1.29688
Q41.7031 -1.20312 35.4062 -1.20312
Q29.2031 -1.20312 23.9531 1.09375
Q18.7031 3.40625 14.8438 7.75
Q11 12.0938 8.79688 18.4375
Q6.59375 24.7969 6.59375 32.7969" id="SourceCodePro-Regular-43"/>
     <path d="
M11.7031 14.2969
Q15.4062 10.5938 20.2969 8.34375
Q25.2031 6.09375 30.5938 6.09375
Q37.5938 6.09375 41.3906 9.04688
Q45.2031 12 45.2031 16.7969
Q45.2031 19.2969 44.2969 21.0469
Q43.4062 22.7969 41.7969 24.0469
Q40.2031 25.2969 38.0469 26.2969
Q35.9062 27.2969 33.4062 28.4062
L24 32.5
Q21.5 33.5 19 34.8906
Q16.5 36.2969 14.4531 38.2969
Q12.4062 40.2969 11.0938 43.0469
Q9.79688 45.7969 9.79688 49.4062
Q9.79688 53.0938 11.3906 56.2969
Q13 59.5 15.8438 61.8438
Q18.7031 64.2031 22.6406 65.5
Q26.5938 66.7969 31.2969 66.7969
Q37.5 66.7969 42.7031 64.5469
Q47.9062 62.2969 51.5 58.7031
L47.0938 53.2969
Q43.9062 56.2031 40.0469 57.8438
Q36.2031 59.5 31.2969 59.5
Q25.2969 59.5 21.7969 56.9531
Q18.2969 54.4062 18.2969 49.9062
Q18.2969 47.5 19.3438 45.8438
Q20.4062 44.2031 22.0469 42.9531
Q23.7031 41.7031 25.7969 40.7969
Q27.9062 39.9062 30 39
L39.2031 35
Q42.2031 33.7969 44.8438 32.25
Q47.5 30.7031 49.4531 28.6406
Q51.4062 26.5938 52.5469 23.8438
Q53.7031 21.0938 53.7031 17.5
Q53.7031 13.5938 52.0938 10.1875
Q50.5 6.79688 47.5 4.25
Q44.5 1.70312 40.2031 0.25
Q35.9062 -1.20312 30.5 -1.20312
Q23.2969 -1.20312 17.25 1.39062
Q11.2031 4 6.70312 8.5
z
" id="SourceCodePro-Regular-53"/>
    </defs>
    <g transform="translate(554.064223582 585.503862758)scale(0.2 -0.2)">
     <use xlink:href="#SourceCodePro-Regular-45"/>
     <use x="59.9999847412" xlink:href="#SourceCodePro-Regular-43"/>
     <use x="119.999969482" xlink:href="#SourceCodePro-Regular-53"/>
    </g>
   </g>
   <g id="text_8">
    <!-- Maison -->
    <defs>
     <path d="
M6.5 65.2031
L21.2031 65.2031
L27.7969 42.0938
L30 33.0938
L30.2969 33.0938
L32.5 42.0938
L38.7969 65.2031
L53.5 65.2031
L53.5 0
L41.5938 0
L41.5938 21.2969
Q41.5938 24 41.7969 27.9531
Q42 31.9062 42.2969 36.0938
Q42.5938 40.2969 42.8906 44.25
Q43.2031 48.2031 43.5 50.7969
L43.2031 50.7969
L38.0938 32.9062
L33.0938 17.4062
L26.5938 17.4062
L21.5938 32.9062
L16.7031 50.7969
L16.2969 50.7969
Q16.5938 48.2031 16.8906 44.25
Q17.2031 40.2969 17.5 36.0938
Q17.7969 31.9062 18 27.9531
Q18.2031 24 18.2031 21.2969
L18.2031 0
L6.5 0
z
" id="SourceCodePro-Bold-4d"/>
    </defs>
    <g transform="translate(1068.18015464 264.503640464)scale(0.3 -0.3)">
     <use xlink:href="#SourceCodePro-Bold-4d"/>
     <use x="59.9999847412" xlink:href="#SourceCodePro-Bold-61"/>
     <use x="119.999969482" xlink:href="#SourceCodePro-Bold-69"/>
     <use x="179.999954224" xlink:href="#SourceCodePro-Bold-73"/>
     <use x="239.999938965" xlink:href="#SourceCodePro-Bold-6f"/>
     <use x="299.999923706" xlink:href="#SourceCodePro-Bold-6e"/>
    </g>
   </g>
   <g id="text_9">
    <!-- Gains -->
    <defs>
     <path d="
M5.29688 32.7969
Q5.29688 40.7031 7.4375 47.0469
Q9.59375 53.4062 13.4375 57.75
Q17.2969 62.0938 22.6406 64.4375
Q28 66.7969 34.4062 66.7969
Q37.7031 66.7969 40.3906 66.0938
Q43.0938 65.4062 45.3438 64.25
Q47.5938 63.0938 49.3438 61.6875
Q51.0938 60.2969 52.5 58.7969
L47.7969 53.5
Q45.4062 56.0938 42.2969 57.7969
Q39.2031 59.5 34.4062 59.5
Q29.7969 59.5 26.0469 57.6406
Q22.2969 55.7969 19.5938 52.3438
Q16.9062 48.9062 15.4531 44
Q14 39.0938 14 33
Q14 26.7969 15.3438 21.8438
Q16.7031 16.9062 19.25 13.4062
Q21.7969 9.90625 25.5938 8
Q29.4062 6.09375 34.2031 6.09375
Q37.7031 6.09375 40.7031 7.14062
Q43.7031 8.20312 45.5938 10
L45.5938 27.0938
L32.5 27.0938
L32.5 34
L53.2969 34
L53.2969 6.40625
Q50.0938 3.20312 45.0938 1
Q40.0938 -1.20312 33.7031 -1.20312
Q27.5 -1.20312 22.2969 1.09375
Q17.0938 3.40625 13.2969 7.75
Q9.5 12.0938 7.39062 18.4375
Q5.29688 24.7969 5.29688 32.7969" id="SourceCodePro-Regular-47"/>
    </defs>
    <g transform="translate(981.571343428 56.6037725515)scale(0.2 -0.2)">
     <use xlink:href="#SourceCodePro-Regular-47"/>
     <use x="59.9999847412" xlink:href="#SourceCodePro-Regular-61"/>
     <use x="119.999969482" xlink:href="#SourceCodePro-Regular-69"/>
     <use x="179.999954224" xlink:href="#SourceCodePro-Regular-6e"/>
     <use x="239.999938965" xlink:href="#SourceCodePro-Regular-73"/>
    </g>
    <!-- Solaires -->
    <g transform="translate(963.711968428 77.7925225515)scale(0.2 -0.2)">
     <use xlink:href="#SourceCodePro-Regular-53"/>
     <use x="59.9999847412" xlink:href="#SourceCodePro-Regular-6f"/>
     <use x="119.999969482" xlink:href="#SourceCodePro-Regular-6c"/>
     <use x="179.999954224" xlink:href="#SourceCodePro-Regular-61"/>
     <use x="239.999938965" xlink:href="#SourceCodePro-Regular-69"/>
     <use x="299.999923706" xlink:href="#SourceCodePro-Regular-72"/>
     <use x="359.999908447" xlink:href="#SourceCodePro-Regular-65"/>
     <use x="419.999893188" xlink:href="#SourceCodePro-Regular-73"/>
    </g>
   </g>
   <g id="text_10">
    <!-- Equipements -->
    <defs>
     <path d="
M6 48.5938
L12.4062 48.5938
L13.0938 42.2031
L13.4062 42.2031
Q15.2031 45.5938 17.6406 47.6875
Q20.0938 49.7969 24.2969 49.7969
Q31.7031 49.7969 33.5 41.4062
Q35.7031 45.2031 38.2969 47.5
Q40.9062 49.7969 45 49.7969
Q50.0938 49.7969 52.8438 45.9375
Q55.5938 42.0938 55.5938 34.7969
L55.5938 0
L47.7031 0
L47.7031 34.0938
Q47.7031 42.7031 42.4062 42.7031
Q39.7969 42.7031 37.8906 40.8438
Q36 39 34.0938 35.2031
L34.0938 0
L27.5 0
L27.5 34.0938
Q27.5 42.7031 22 42.7031
Q19.4062 42.7031 17.5938 40.8438
Q15.7969 39 13.9062 35.2031
L13.9062 0
L6 0
z
" id="SourceCodePro-Regular-6d"/>
    </defs>
    <g transform="translate(870.034954897 101.054945232)scale(0.2 -0.2)">
     <use xlink:href="#SourceCodePro-Regular-45"/>
     <use x="59.9999847412" xlink:href="#SourceCodePro-Regular-71"/>
     <use x="119.999969482" xlink:href="#SourceCodePro-Regular-75"/>
     <use x="179.999954224" xlink:href="#SourceCodePro-Regular-69"/>
     <use x="239.999938965" xlink:href="#SourceCodePro-Regular-70"/>
     <use x="299.999923706" xlink:href="#SourceCodePro-Regular-65"/>
     <use x="359.999908447" xlink:href="#SourceCodePro-Regular-6d"/>
     <use x="419.999893188" xlink:href="#SourceCodePro-Regular-65"/>
     <use x="479.99987793" xlink:href="#SourceCodePro-Regular-6e"/>
     <use x="539.999862671" xlink:href="#SourceCodePro-Regular-74"/>
     <use x="599.999847412" xlink:href="#SourceCodePro-Regular-73"/>
    </g>
   </g>
   <g id="text_11">
    <!-- Occupants -->
    <defs>
     <path d="
M30 -1.20312
Q24.4062 -1.20312 19.7969 1.1875
Q15.2031 3.59375 11.8438 8.04688
Q8.5 12.5 6.64062 18.8438
Q4.79688 25.2031 4.79688 33.0938
Q4.79688 41 6.64062 47.25
Q8.5 53.5 11.8438 57.8438
Q15.2031 62.2031 19.7969 64.5
Q24.4062 66.7969 30 66.7969
Q35.5 66.7969 40.1406 64.4375
Q44.7969 62.0938 48.1406 57.75
Q51.5 53.4062 53.3438 47.1562
Q55.2031 40.9062 55.2031 33.0938
Q55.2031 25.2031 53.3438 18.8438
Q51.5 12.5 48.1406 8.04688
Q44.7969 3.59375 40.1406 1.1875
Q35.5 -1.20312 30 -1.20312
M30 6.09375
Q33.7031 6.09375 36.7969 8
Q39.9062 9.90625 42.0469 13.4531
Q44.2031 17 45.3906 21.9531
Q46.5938 26.9062 46.5938 33.0938
Q46.5938 39.2031 45.3906 44.0938
Q44.2031 49 42.0469 52.3906
Q39.9062 55.7969 36.7969 57.6406
Q33.7031 59.5 30 59.5
Q26.2031 59.5 23.1406 57.6406
Q20.0938 55.7969 17.9375 52.3906
Q15.7969 49 14.5938 44.0938
Q13.4062 39.2031 13.4062 33.0938
Q13.4062 26.9062 14.5938 21.9531
Q15.7969 17 17.9375 13.4531
Q20.0938 9.90625 23.1406 8
Q26.2031 6.09375 30 6.09375" id="SourceCodePro-Regular-4f"/>
    </defs>
    <g transform="translate(822.131652706 117.969281572)scale(0.2 -0.2)">
     <use xlink:href="#SourceCodePro-Regular-4f"/>
     <use x="59.9999847412" xlink:href="#SourceCodePro-Regular-63"/>
     <use x="119.999969482" xlink:href="#SourceCodePro-Regular-63"/>
     <use x="179.999954224" xlink:href="#SourceCodePro-Regular-75"/>
     <use x="239.999938965" xlink:href="#SourceCodePro-Regular-70"/>
     <use x="299.999923706" xlink:href="#SourceCodePro-Regular-61"/>
     <use x="359.999908447" xlink:href="#SourceCodePro-Regular-6e"/>
     <use x="419.999893188" xlink:href="#SourceCodePro-Regular-74"/>
     <use x="479.99987793" xlink:href="#SourceCodePro-Regular-73"/>
    </g>
   </g>
   <g id="text_12">
    <!-- Eclairage -->
    <g transform="translate(763.458038015 134.711742912)scale(0.2 -0.2)">
     <use xlink:href="#SourceCodePro-Regular-45"/>
     <use x="59.9999847412" xlink:href="#SourceCodePro-Regular-63"/>
     <use x="119.999969482" xlink:href="#SourceCodePro-Regular-6c"/>
     <use x="179.999954224" xlink:href="#SourceCodePro-Regular-61"/>
     <use x="239.999938965" xlink:href="#SourceCodePro-Regular-69"/>
     <use x="299.999923706" xlink:href="#SourceCodePro-Regular-72"/>
     <use x="359.999908447" xlink:href="#SourceCodePro-Regular-61"/>
     <use x="419.999893188" xlink:href="#SourceCodePro-Regular-67"/>
     <use x="479.99987793" xlink:href="#SourceCodePro-Regular-65"/>
    </g>
   </g>
   <g id="text_13">
    <!-- Besoins thermiques -->
    <defs>
     <path d="
M10.2969 65.5938
L28.2969 65.5938
Q33.2969 65.5938 37.4375 64.6875
Q41.5938 63.7969 44.5469 61.8906
Q47.5 60 49.1406 56.9531
Q50.7969 53.9062 50.7969 49.5938
Q50.7969 44.7031 47.9375 40.75
Q45.0938 36.7969 39.2969 35.2969
L39.2969 34.9062
Q46.5 33.7969 50.5 29.8906
Q54.5 26 54.5 19.2031
Q54.5 14.4062 52.7031 10.7969
Q50.9062 7.20312 47.6562 4.79688
Q44.4062 2.40625 39.8438 1.20312
Q35.2969 0 29.7969 0
L10.2969 0
z

M26.9062 37.5938
Q35.2969 37.5938 38.9375 40.5
Q42.5938 43.4062 42.5938 48.9062
Q42.5938 54.2969 38.75 56.6406
Q34.9062 59 27.2969 59
L18.7031 59
L18.7031 37.5938
z

M28.5938 6.59375
Q37.0938 6.59375 41.6875 9.75
Q46.2969 12.9062 46.2969 19.5938
Q46.2969 25.7031 41.7969 28.5469
Q37.2969 31.4062 28.5938 31.4062
L18.7031 31.4062
L18.7031 6.59375
z
" id="SourceCodePro-Regular-42"/>
    </defs>
    <g transform="translate(1275.36330541 261.830202964)scale(0.2 -0.2)">
     <use xlink:href="#SourceCodePro-Regular-42"/>
     <use x="59.9999847412" xlink:href="#SourceCodePro-Regular-65"/>
     <use x="119.999969482" xlink:href="#SourceCodePro-Regular-73"/>
     <use x="179.999954224" xlink:href="#SourceCodePro-Regular-6f"/>
     <use x="239.999938965" xlink:href="#SourceCodePro-Regular-69"/>
     <use x="299.999923706" xlink:href="#SourceCodePro-Regular-6e"/>
     <use x="359.999908447" xlink:href="#SourceCodePro-Regular-73"/>
     <use x="419.999893188" xlink:href="#SourceCodePro-Regular-20"/>
     <use x="479.99987793" xlink:href="#SourceCodePro-Regular-74"/>
     <use x="539.999862671" xlink:href="#SourceCodePro-Regular-68"/>
     <use x="599.999847412" xlink:href="#SourceCodePro-Regular-65"/>
     <use x="659.999832153" xlink:href="#SourceCodePro-Regular-72"/>
     <use x="719.999816895" xlink:href="#SourceCodePro-Regular-6d"/>
     <use x="779.999801636" xlink:href="#SourceCodePro-Regular-69"/>
     <use x="839.999786377" xlink:href="#SourceCodePro-Regular-71"/>
     <use x="899.999771118" xlink:href="#SourceCodePro-Regular-75"/>
     <use x="959.999755859" xlink:href="#SourceCodePro-Regular-65"/>
     <use x="1019.9997406" xlink:href="#SourceCodePro-Regular-73"/>
    </g>
   </g>
   <g id="text_14">
    <!-- Surplus -->
    <g transform="translate(1172.79650451 24.888869201)scale(0.2 -0.2)">
     <use xlink:href="#SourceCodePro-Regular-53"/>
     <use x="59.9999847412" xlink:href="#SourceCodePro-Regular-75"/>
     <use x="119.999969482" xlink:href="#SourceCodePro-Regular-72"/>
     <use x="179.999954224" xlink:href="#SourceCodePro-Regular-70"/>
     <use x="239.999938965" xlink:href="#SourceCodePro-Regular-6c"/>
     <use x="299.999923706" xlink:href="#SourceCodePro-Regular-75"/>
     <use x="359.999908447" xlink:href="#SourceCodePro-Regular-73"/>
    </g>
   </g>
   <g id="text_15">
    <!-- Recuperation -->
    <defs>
     <path d="
M52.5 0
L40.5 0
L39.4062 7.09375
L39 7.09375
Q35.7031 3.29688 31.7031 1.04688
Q27.7031 -1.20312 22.2969 -1.20312
Q13.7969 -1.20312 10 4.1875
Q6.20312 9.59375 6.20312 19
L6.20312 49.5938
L20.9062 49.5938
L20.9062 20.9062
Q20.9062 15.9062 22.4062 13.5938
Q23.9062 11.2969 28.0938 11.2969
Q30.9062 11.2969 33.0469 12.5
Q35.2031 13.7031 37.7969 17
L37.7969 49.5938
L52.5 49.5938
z
" id="SourceCodePro-Bold-75"/>
     <path d="
M21.9062 -3.90625
L21.9062 -18.4062
L7.20312 -18.4062
L7.20312 49.5938
L19.2031 49.5938
L20.2969 44.5938
L20.5938 44.5938
Q23.5938 47.2969 27.5 49.0469
Q31.4062 50.7969 35.4062 50.7969
Q40 50.7969 43.7031 49
Q47.4062 47.2031 50 43.8906
Q52.5938 40.5938 53.9375 35.9375
Q55.2969 31.2969 55.2969 25.5938
Q55.2969 19.2031 53.5 14.25
Q51.7031 9.29688 48.7031 5.84375
Q45.7031 2.40625 41.8438 0.59375
Q38 -1.20312 33.7969 -1.20312
Q27 -1.20312 21.4062 4.20312
z

M21.9062 14.0938
Q24 12.2969 26.25 11.5469
Q28.5 10.7969 30.4062 10.7969
Q34.5938 10.7969 37.3906 14.25
Q40.2031 17.7031 40.2031 25.4062
Q40.2031 38.7969 31.0938 38.7969
Q26.4062 38.7969 21.9062 34.2031
z
" id="SourceCodePro-Bold-70"/>
     <path d="
M21.7031 35.2031
L28.9062 35.2031
Q40.7969 35.2031 40.7969 44.9062
Q40.7969 49.7031 37.7969 51.5938
Q34.7969 53.5 28.9062 53.5
L21.7031 53.5
z

M41.9062 0
L29.4062 23.5
L21.7031 23.5
L21.7031 0
L7 0
L7 65.2031
L30.0938 65.2031
Q35.2969 65.2031 39.8438 64.2031
Q44.4062 63.2031 47.8438 60.8438
Q51.2969 58.5 53.2969 54.5938
Q55.2969 50.7031 55.2969 44.9062
Q55.2969 37.7031 52.0938 33.0469
Q48.9062 28.4062 43.7031 26.0938
L58.4062 0
z
" id="SourceCodePro-Bold-52"/>
    </defs>
    <g style="fill:#ffffff;" transform="translate(730.782989691 552.942670747)scale(0.3 -0.3)">
     <use xlink:href="#SourceCodePro-Bold-52"/>
     <use x="59.9999847412" xlink:href="#SourceCodePro-Bold-65"/>
     <use x="119.999969482" xlink:href="#SourceCodePro-Bold-63"/>
     <use x="179.999954224" xlink:href="#SourceCodePro-Bold-75"/>
     <use x="239.999938965" xlink:href="#SourceCodePro-Bold-70"/>
     <use x="299.999923706" xlink:href="#SourceCodePro-Bold-65"/>
     <use x="359.999908447" xlink:href="#SourceCodePro-Bold-72"/>
     <use x="419.999893188" xlink:href="#SourceCodePro-Bold-61"/>
     <use x="479.99987793" xlink:href="#SourceCodePro-Bold-74"/>
     <use x="539.999862671" xlink:href="#SourceCodePro-Bold-69"/>
     <use x="599.999847412" xlink:href="#SourceCodePro-Bold-6f"/>
     <use x="659.999832153" xlink:href="#SourceCodePro-Bold-6e"/>
    </g>
   </g>
   <g id="text_16">
    <!-- Pertes -->
    <g transform="translate(612.202174613 411.620460696)scale(0.2 -0.2)">
     <use xlink:href="#SourceCodePro-Regular-50"/>
     <use x="59.9999847412" xlink:href="#SourceCodePro-Regular-65"/>
     <use x="119.999969482" xlink:href="#SourceCodePro-Regular-72"/>
     <use x="179.999954224" xlink:href="#SourceCodePro-Regular-74"/>
     <use x="239.999938965" xlink:href="#SourceCodePro-Regular-65"/>
     <use x="299.999923706" xlink:href="#SourceCodePro-Regular-73"/>
    </g>
    <!-- Stockage -->
    <defs>
     <path d="
M10.5938 71.2031
L18.7969 71.2031
L18.7969 23
L19.0938 23.0938
L45.4062 48.5938
L54.7969 48.5938
L35.4062 29.2969
L57.4062 0
L48.2031 0
L30.2969 24
L18.7969 13
L18.7969 0
L10.5938 0
z
" id="SourceCodePro-Regular-6b"/>
    </defs>
    <g transform="translate(599.741237113 432.809210696)scale(0.2 -0.2)">
     <use xlink:href="#SourceCodePro-Regular-53"/>
     <use x="59.9999847412" xlink:href="#SourceCodePro-Regular-74"/>
     <use x="119.999969482" xlink:href="#SourceCodePro-Regular-6f"/>
     <use x="179.999954224" xlink:href="#SourceCodePro-Regular-63"/>
     <use x="239.999938965" xlink:href="#SourceCodePro-Regular-6b"/>
     <use x="299.999923706" xlink:href="#SourceCodePro-Regular-61"/>
     <use x="359.999908447" xlink:href="#SourceCodePro-Regular-67"/>
     <use x="419.999893188" xlink:href="#SourceCodePro-Regular-65"/>
    </g>
   </g>
   <g id="text_17">
    <!-- Apports -->
    <g transform="translate(986.285679768 377.773038015)scale(0.2 -0.2)">
     <use xlink:href="#SourceCodePro-Regular-41"/>
     <use x="59.9999847412" xlink:href="#SourceCodePro-Regular-70"/>
     <use x="119.999969482" xlink:href="#SourceCodePro-Regular-70"/>
     <use x="179.999954224" xlink:href="#SourceCodePro-Regular-6f"/>
     <use x="239.999938965" xlink:href="#SourceCodePro-Regular-72"/>
     <use x="299.999923706" xlink:href="#SourceCodePro-Regular-74"/>
     <use x="359.999908447" xlink:href="#SourceCodePro-Regular-73"/>
    </g>
    <!-- Stockage -->
    <g transform="translate(980.524742268 398.961788015)scale(0.2 -0.2)">
     <use xlink:href="#SourceCodePro-Regular-53"/>
     <use x="59.9999847412" xlink:href="#SourceCodePro-Regular-74"/>
     <use x="119.999969482" xlink:href="#SourceCodePro-Regular-6f"/>
     <use x="179.999954224" xlink:href="#SourceCodePro-Regular-63"/>
     <use x="239.999938965" xlink:href="#SourceCodePro-Regular-6b"/>
     <use x="299.999923706" xlink:href="#SourceCodePro-Regular-61"/>
     <use x="359.999908447" xlink:href="#SourceCodePro-Regular-67"/>
     <use x="419.999893188" xlink:href="#SourceCodePro-Regular-65"/>
    </g>
   </g>
   <g id="text_18">
    <!-- Recuperation sur -->
    <defs>
     <path d="
M18.2969 34.5
L29.2031 34.5
Q36.9062 34.5 40.9531 37.6406
Q45 40.7969 45 47.2031
Q45 53.7031 40.9531 56.2969
Q36.9062 58.9062 29.2031 58.9062
L18.2969 58.9062
z

M45.7969 0
L30 27.7031
L18.2969 27.7031
L18.2969 0
L10 0
L10 65.5938
L30.4062 65.5938
Q35.4062 65.5938 39.5938 64.6406
Q43.7969 63.7031 46.8438 61.5
Q49.9062 59.2969 51.5938 55.7969
Q53.2969 52.2969 53.2969 47.2031
Q53.2969 39.5 49.2969 34.8906
Q45.2969 30.2969 38.5938 28.5938
L55.2969 0
z
" id="SourceCodePro-Regular-52"/>
    </defs>
    <g transform="translate(271.840625 183.540982603)scale(0.2 -0.2)">
     <use xlink:href="#SourceCodePro-Regular-52"/>
     <use x="59.9999847412" xlink:href="#SourceCodePro-Regular-65"/>
     <use x="119.999969482" xlink:href="#SourceCodePro-Regular-63"/>
     <use x="179.999954224" xlink:href="#SourceCodePro-Regular-75"/>
     <use x="239.999938965" xlink:href="#SourceCodePro-Regular-70"/>
     <use x="299.999923706" xlink:href="#SourceCodePro-Regular-65"/>
     <use x="359.999908447" xlink:href="#SourceCodePro-Regular-72"/>
     <use x="419.999893188" xlink:href="#SourceCodePro-Regular-61"/>
     <use x="479.99987793" xlink:href="#SourceCodePro-Regular-74"/>
     <use x="539.999862671" xlink:href="#SourceCodePro-Regular-69"/>
     <use x="599.999847412" xlink:href="#SourceCodePro-Regular-6f"/>
     <use x="659.999832153" xlink:href="#SourceCodePro-Regular-6e"/>
     <use x="719.999816895" xlink:href="#SourceCodePro-Regular-20"/>
     <use x="779.999801636" xlink:href="#SourceCodePro-Regular-73"/>
     <use x="839.999786377" xlink:href="#SourceCodePro-Regular-75"/>
     <use x="899.999771118" xlink:href="#SourceCodePro-Regular-72"/>
    </g>
    <!-- air interieur -->
    <g transform="translate(289.840625 204.729732603)scale(0.2 -0.2)">
     <use xlink:href="#SourceCodePro-Regular-61"/>
     <use x="59.9999847412" xlink:href="#SourceCodePro-Regular-69"/>
     <use x="119.999969482" xlink:href="#SourceCodePro-Regular-72"/>
     <use x="179.999954224" xlink:href="#SourceCodePro-Regular-20"/>
     <use x="239.999938965" xlink:href="#SourceCodePro-Regular-69"/>
     <use x="299.999923706" xlink:href="#SourceCodePro-Regular-6e"/>
     <use x="359.999908447" xlink:href="#SourceCodePro-Regular-74"/>
     <use x="419.999893188" xlink:href="#SourceCodePro-Regular-65"/>
     <use x="479.99987793" xlink:href="#SourceCodePro-Regular-72"/>
     <use x="539.999862671" xlink:href="#SourceCodePro-Regular-69"/>
     <use x="599.999847412" xlink:href="#SourceCodePro-Regular-65"/>
     <use x="659.999832153" xlink:href="#SourceCodePro-Regular-75"/>
     <use x="719.999816895" xlink:href="#SourceCodePro-Regular-72"/>
    </g>
   </g>
   <g id="text_19">
    <!-- Recuperation sur -->
    <g transform="translate(1118.02619201 403.549230026)scale(0.2 -0.2)">
     <use xlink:href="#SourceCodePro-Regular-52"/>
     <use x="59.9999847412" xlink:href="#SourceCodePro-Regular-65"/>
     <use x="119.999969482" xlink:href="#SourceCodePro-Regular-63"/>
     <use x="179.999954224" xlink:href="#SourceCodePro-Regular-75"/>
     <use x="239.999938965" xlink:href="#SourceCodePro-Regular-70"/>
     <use x="299.999923706" xlink:href="#SourceCodePro-Regular-65"/>
     <use x="359.999908447" xlink:href="#SourceCodePro-Regular-72"/>
     <use x="419.999893188" xlink:href="#SourceCodePro-Regular-61"/>
     <use x="479.99987793" xlink:href="#SourceCodePro-Regular-74"/>
     <use x="539.999862671" xlink:href="#SourceCodePro-Regular-69"/>
     <use x="599.999847412" xlink:href="#SourceCodePro-Regular-6f"/>
     <use x="659.999832153" xlink:href="#SourceCodePro-Regular-6e"/>
     <use x="719.999816895" xlink:href="#SourceCodePro-Regular-20"/>
     <use x="779.999801636" xlink:href="#SourceCodePro-Regular-73"/>
     <use x="839.999786377" xlink:href="#SourceCodePro-Regular-75"/>
     <use x="899.999771118" xlink:href="#SourceCodePro-Regular-72"/>
    </g>
    <!-- air interieur -->
    <g transform="translate(1136.02619201 424.737980026)scale(0.2 -0.2)">
     <use xlink:href="#SourceCodePro-Regular-61"/>
     <use x="59.9999847412" xlink:href="#SourceCodePro-Regular-69"/>
     <use x="119.999969482" xlink:href="#SourceCodePro-Regular-72"/>
     <use x="179.999954224" xlink:href="#SourceCodePro-Regular-20"/>
     <use x="239.999938965" xlink:href="#SourceCodePro-Regular-69"/>
     <use x="299.999923706" xlink:href="#SourceCodePro-Regular-6e"/>
     <use x="359.999908447" xlink:href="#SourceCodePro-Regular-74"/>
     <use x="419.999893188" xlink:href="#SourceCodePro-Regular-65"/>
     <use x="479.99987793" xlink:href="#SourceCodePro-Regular-72"/>
     <use x="539.999862671" xlink:href="#SourceCodePro-Regular-69"/>
     <use x="599.999847412" xlink:href="#SourceCodePro-Regular-65"/>
     <use x="659.999832153" xlink:href="#SourceCodePro-Regular-75"/>
     <use x="719.999816895" xlink:href="#SourceCodePro-Regular-72"/>
    </g>
   </g>
   <g id="text_20">
    <!-- Recuperation    -->
    <g style="fill:#ffffff;" transform="translate(539.341237113 671.408650129)scale(0.3 -0.3)">
     <use xlink:href="#SourceCodePro-Bold-52"/>
     <use x="59.9999847412" xlink:href="#SourceCodePro-Bold-65"/>
     <use x="119.999969482" xlink:href="#SourceCodePro-Bold-63"/>
     <use x="179.999954224" xlink:href="#SourceCodePro-Bold-75"/>
     <use x="239.999938965" xlink:href="#SourceCodePro-Bold-70"/>
     <use x="299.999923706" xlink:href="#SourceCodePro-Bold-65"/>
     <use x="359.999908447" xlink:href="#SourceCodePro-Bold-72"/>
     <use x="419.999893188" xlink:href="#SourceCodePro-Bold-61"/>
     <use x="479.99987793" xlink:href="#SourceCodePro-Bold-74"/>
     <use x="539.999862671" xlink:href="#SourceCodePro-Bold-69"/>
     <use x="599.999847412" xlink:href="#SourceCodePro-Bold-6f"/>
     <use x="659.999832153" xlink:href="#SourceCodePro-Bold-6e"/>
     <use x="719.999816895" xlink:href="#SourceCodePro-Bold-20"/>
     <use x="779.999801636" xlink:href="#SourceCodePro-Bold-20"/>
     <use x="839.999786377" xlink:href="#SourceCodePro-Bold-20"/>
    </g>
   </g>
  </g>
 </g>
 <defs>
  <clipPath id="p0570a6eff0">
   <rect height="820.8" width="1684.8" x="-64.8" y="-64.8"/>
  </clipPath>
 </defs>
</svg>
